<?xml version="1.0" encoding="UTF-8" standalone="no"?>
<!-- Created with Inkscape (http://www.inkscape.org/) -->

<svg
   width="28.001722mm"
   height="15.894727mm"
   viewBox="0 0 28.001722 15.894727"
   version="1.1"
   id="svg1034"
   xmlns:xlink="http://www.w3.org/1999/xlink"
   xmlns="http://www.w3.org/2000/svg"
   xmlns:svg="http://www.w3.org/2000/svg">
  <defs
     id="defs1031">
    <rect
       x="119.81305"
       y="5.6835797"
       width="332.83783"
       height="53.547347"
       id="rect5326" />
    <linearGradient
       id="linearGradient1164">
      <stop
         style="stop-color:#2ed658;stop-opacity:1;"
         offset="0"
         id="stop1160" />
      <stop
         style="stop-color:#239dcd;stop-opacity:1"
         offset="1"
         id="stop1162" />
    </linearGradient>
    <linearGradient
       xlink:href="#linearGradient1164"
       id="linearGradient1166"
       x1="18.57962"
       y1="153.12489"
       x2="125.93771"
       y2="199.14062"
       gradientUnits="userSpaceOnUse" />
  </defs>
  <g
     id="layer1"
     transform="translate(-131.0162,-90.841549)">
    <g
       transform="matrix(0.26458333,0,0,0.26458333,125.95168,52.922097)"
       id="g912"
       style="fill:url(#linearGradient1166);fill-opacity:1">
      <g
         transform="translate(2.8913043e-5,0.38980462)"
         id="g910"
         style="fill:url(#linearGradient1166);fill-opacity:1">
        <path
           d="m 43.362999,203.00237 q -3.770637,0 -6.582637,-1.34209 -2.748091,-1.27819 -4.154092,-3.77064 -1.342091,-2.42855 -0.958636,-5.81573 l 0.958636,-10.16155 q 0.255637,-2.93981 -0.958636,-4.34581 -1.214273,-1.46991 -4.729273,-1.46991 H 19.14145 v -6.2631 h 7.796911 q 3.515,0 4.729273,-1.406 1.214273,-1.406 0.958636,-4.40972 l -0.958636,-10.22546 q -0.319546,-3.38718 1.022545,-5.81573 1.406001,-2.42854 4.154092,-3.70673 2.748091,-1.34209 6.518728,-1.34209 h 3.642819 v 6.2631 h -3.067637 q -2.684182,0 -4.154091,1.27818 -1.46991,1.27818 -1.278182,3.70673 l 0.958636,10.22545 q 0.383455,3.96237 -2.045091,6.26309 -2.428546,2.23682 -6.710456,2.23682 v -0.31954 q 4.218001,0 6.646547,2.49245 2.492455,2.49246 2.109,6.45482 l -0.958636,10.22546 q -0.191728,2.42854 1.278182,3.70672 1.469909,1.27819 4.154091,1.27819 h 3.067637 v 6.26309 z"
           style="fill:url(#linearGradient1166);fill-opacity:1"
           id="path904" />
        <path
           d="m 97.11036,203.00237 v -6.26309 h 3.06764 q 2.68418,0 4.15409,-1.27819 1.46991,-1.27818 1.27818,-3.70672 l -0.95864,-10.22546 q -0.38345,-3.96236 2.04509,-6.45482 2.49246,-2.55636 6.71046,-2.55636 v 0.38345 q -4.28191,0 -6.71046,-2.23682 -2.42854,-2.30072 -2.04509,-6.26309 l 0.95864,-10.22545 q 0.19173,-2.42855 -1.27818,-3.70673 -1.46991,-1.27818 -4.15409,-1.27818 h -3.06764 v -6.2631 h 3.64282 q 3.77064,0 6.51873,1.34209 2.74809,1.27819 4.15409,3.70673 1.406,2.42855 1.02254,5.81573 l -0.95863,10.22546 q -0.19173,3.00372 0.95863,4.40972 1.21428,1.406 4.72928,1.406 h 7.79691 v 6.2631 h -7.79691 q -3.45109,0 -4.66537,1.46991 -1.21427,1.406 -1.02254,4.34581 l 0.95863,10.16155 q 0.38346,3.38718 -1.02254,5.81573 -1.406,2.49245 -4.15409,3.77064 -2.74809,1.34209 -6.51873,1.34209 z"
           style="fill:url(#linearGradient1166);fill-opacity:1"
           id="path906" />
        <path
           d="m 70.189645,176.48922 c -0.918952,3.26241 -1.659336,6.58489 -2.481356,9.87319 -0.848992,3.39552 -1.672924,6.79616 -2.521806,10.19168 -0.429843,1.71982 -0.428817,3.20943 0.575639,3.47858 0.742154,0.2479 1.492801,0.0265 2.124198,-0.93076 1.086691,-1.64734 2.15034,-3.31687 3.197641,-4.98958 4.418732,-7.05678 8.962093,-14.06759 13.543573,-21.02032 1.479809,-2.24579 2.873414,-4.54868 4.353334,-6.79446 1.020482,-1.54877 1.251002,-2.39721 1.125245,-2.86656 -0.06688,-0.24968 -0.549421,-1.06148 -3.673485,-1.06148 H 76.134789 c 1.210575,-3.12047 2.669367,-6.1907 4.058729,-9.2362 0.625194,-1.37047 1.193755,-2.76706 1.812736,-4.14037 0.763391,-1.69372 0.566098,-2.33089 0.343653,-2.76969 -0.239237,-0.47195 -1.103784,-0.42089 -3.879532,-0.41521 l -9.023878,0.0185 c -2.482289,0.005 -3.544549,6.3e-4 -3.82177,0.13398 -0.564791,0.27127 -0.786725,0.80257 -1.167904,1.7585 -0.56171,1.40886 -1.098258,2.82892 -1.637462,4.24653 -2.171993,5.70978 -4.387625,11.40661 -6.621727,17.09229 -0.610438,1.55348 -1.321465,3.24347 -1.931323,4.79728 -0.637919,1.6253 -0.03856,1.87127 0.126396,2.03622 0.383489,0.38348 2.370753,0.59793 4.331301,0.59793 z"
           style="fill:url(#linearGradient1166);fill-opacity:1"
           id="path908" />
      </g>
    </g>
  </g>
</svg>
