<?xml version="1.0" encoding="UTF-8" standalone="no"?>
<!-- Created with Inkscape (http://www.inkscape.org/) -->

<svg viewBox="0 0 399.99999 230" version="1.1" xmlns="http://www.w3.org/2000/svg"
   xmlns:svg="http://www.w3.org/2000/svg">
   <g transform="translate(4.0603638e-5,-3.2110596e-4)">
      <g transform="translate(1.1969818e-4,34.2296)">
         <path
            d="M 122.42184,150.65191 -4.0603638e-5,91.117978 V 59.53425 L 122.42184,3.2110596e-4 V 28.230025 L 38.850739,68.198813 q -5.59004,2.515518 -10.621076,4.472032 -5.031036,1.677012 -7.546555,2.236016 2.795021,0.559004 7.826057,2.236016 5.310538,1.677012 10.341574,4.19253 L 122.42184,121.5837 Z" />
         <path
            d="M 277.57784,150.65191 V 122.1427 l 83.5711,-39.968787 q 5.59004,-2.515518 10.62108,-4.19253 5.03104,-1.677012 7.54655,-2.236016 -2.79502,-0.559004 -8.10556,-2.236016 -5.03103,-1.956514 -10.06207,-4.472032 L 277.57784,29.068531 V 3.2110596e-4 L 399.99972,59.53425 v 31.583728 z" />
         <path
            d="m 194.64591,93.809471 c -2.63323,9.348289 -4.75477,18.868759 -7.11024,28.291269 -2.43276,9.72976 -4.79371,19.47415 -7.22615,29.2039 -1.2317,4.9281 -1.22876,9.19653 1.64947,9.96776 2.12662,0.71034 4.27757,0.0759 6.08682,-2.66709 3.11387,-4.72038 6.16172,-9.50435 9.16273,-14.29743 12.66172,-20.22096 25.68057,-40.31021 38.80864,-60.233036 4.24034,-6.435206 8.23367,-13.034072 12.47433,-19.469268 2.92416,-4.437952 3.5847,-6.869126 3.22435,-8.21401 -0.19165,-0.715483 -1.57434,-3.041655 -10.52625,-3.041655 h -29.5081 c 3.46887,-8.941573 7.64898,-17.739256 11.63015,-26.466026 1.79147,-3.927044 3.42066,-7.9289 5.19434,-11.86408 2.18747,-4.853283 1.62213,-6.6790846 0.98472,-7.9364234 -0.68553,-1.3523897 -3.16286,-1.2060738 -11.11666,-1.1897951 l -25.85762,0.052959 c -7.11291,0.014606 -10.15678,0.00225 -10.95115,0.3839024 -1.61838,0.7773163 -2.25433,2.2997482 -3.34658,5.0389351 -1.60956,4.037042 -3.14703,8.106175 -4.6921,12.168294 -6.22377,16.361176 -12.57259,32.68524 -18.97433,48.977351 -1.74919,4.451476 -3.78661,9.294081 -5.53414,13.746457 -1.82793,4.657241 -0.11049,5.362036 0.36219,5.834702 1.09887,1.098858 6.79331,1.713367 12.41119,1.713358 z" />
      </g>
   </g>
</svg>